<?xml version="1.0" encoding="utf-8"?>
<!-- Generator: Adobe Illustrator 24.0.2, SVG Export Plug-In . SVG Version: 6.00 Build 0)  -->
<svg version="1.1" id="Capa_1" xmlns="http://www.w3.org/2000/svg" xmlns:xlink="http://www.w3.org/1999/xlink" x="0px" y="0px"
	 viewBox="0 0 512 512" style="enable-background:new 0 0 512 512;" xml:space="preserve">
<style type="text/css">
	.st0{fill:#A8001F;}
</style>
<g id="XMLID_629_">
	<g id="XMLID_624_">
		<path id="XMLID_626_" class="st0" d="M279.1,420c-5.5,0-10,4.5-10,10v72c0,5.5,4.5,10,10,10s10-4.5,10-10v-72
			C289.1,424.5,284.6,420,279.1,420z"/>
		<path id="XMLID_1032_" class="st0" d="M58,487.4c-3.3,3-7.6,4.6-12.7,4.6c-14,0-25.3-11.7-25.3-26c0-14.3,11.4-26,25.3-26
			c4.4,0,8.8,1.2,12.6,3.4c4.8,2.8,10.9,1.2,13.7-3.5c2.8-4.8,1.2-10.9-3.5-13.7c-6.9-4.1-14.8-6.2-22.7-6.2C20.3,420,0,440.6,0,466
			c0,25.4,20.3,46,45.3,46c10.1,0,19.1-3.4,26.1-9.7c4.1-3.7,4.4-10,0.7-14.1C68.4,484,62.1,483.7,58,487.4L58,487.4z"/>
		<path id="XMLID_1033_" class="st0" d="M242.3,420.6c-5.2-1.7-10.9,1.1-12.6,6.3l-15.7,47.4l-16.5-47.6c-1.8-5.2-7.5-8-12.7-6.2
			c-5.2,1.8-8,7.5-6.2,12.7l24.6,71c1.6,4.6,6,7.7,11,7.7h0.1c4.9,0,9.3-3.2,11-7.9l23.5-70.8C250.4,428,247.5,422.4,242.3,420.6
			L242.3,420.6z"/>
		<path id="XMLID_1036_" class="st0" d="M131.2,420.1c-19.2,0-34.7,15.6-34.7,34.7v22.5c0,19.2,15.6,34.7,34.7,34.7
			s34.7-15.6,34.7-34.7v-22.5C165.9,435.6,150.4,420.1,131.2,420.1L131.2,420.1z M145.9,477.3c0,8.1-6.6,14.7-14.7,14.7
			s-14.7-6.6-14.7-14.7v-22.5c0-8.1,6.6-14.7,14.7-14.7c8.1,0,14.7,6.6,14.7,14.7V477.3z"/>
		<path id="XMLID_1037_" class="st0" d="M417,420h-12.6c-5.5,0-10,4.5-10,10c0,5.5,4.5,10,10,10h2.6v62c0,5.5,4.5,10,10,10
			c5.5,0,10-4.5,10-10v-72C427,424.5,422.6,420,417,420z"/>
		<path id="XMLID_1040_" class="st0" d="M512,451.4c0-17-13.8-30.8-30.8-30.8c-17,0-30.8,13.8-30.8,30.8c0,16.8,13.6,30.5,30.3,30.8
			c-5.3,7.5-10.4,11.5-10.5,11.6c-4.4,3.3-5.3,9.5-2,14c2,2.6,5,4,8,4c2.1,0,4.2-0.6,6-2c1-0.8,25.2-19.1,29.5-53.6
			C511.9,454.7,512,453.1,512,451.4z M470.4,451.4c0-6,4.9-10.8,10.8-10.8c6,0,10.8,4.9,10.8,10.8c0,6-4.9,10.8-10.8,10.8
			C475.2,462.2,470.4,457.4,470.4,451.4z"/>
		<path id="XMLID_1043_" class="st0" d="M423.3,176.4c-12,0-22.2,7.5-26.3,18.1h-12.5c-1.1-14.2-4.5-28-10.2-41.2
			c-2.2-5.1-8.1-7.4-13.1-5.2c-5.1,2.2-7.4,8.1-5.2,13.1c5.9,13.7,8.9,28.2,8.9,43.2c0,26.5-9.5,50.8-25.2,69.7l-6.3-6.3
			c-3.9-3.9-10.2-3.9-14.1,0c-3.9,3.9-3.9,10.2,0,14.1l6.3,6.3c-18.9,15.8-43.2,25.2-69.7,25.2s-50.8-9.5-69.7-25.2l1-1
			c3.9-3.9,3.9-10.2,0-14.1c-3.9-3.9-10.2-3.9-14.1,0l-1,1c-15.8-18.9-25.2-43.2-25.2-69.7s9.5-50.8,25.2-69.7l8.2,8.2
			c2,2,4.5,2.9,7.1,2.9s5.1-1,7.1-2.9c3.9-3.9,3.9-10.2,0-14.1l-8.2-8.2c18.9-15.8,43.2-25.2,69.7-25.2c14.9,0,29.3,2.9,42.8,8.7
			c5.1,2.2,11-0.2,13.1-5.3c2.2-5.1-0.2-11-5.3-13.1c-13-5.5-26.6-8.9-40.7-9.9V63.6c13.1-4.2,22.6-16.5,22.6-31
			c0-18-14.6-32.6-32.6-32.6c-18,0-32.6,14.6-32.6,32.6c0,14.5,9.5,26.8,22.6,31v12.2c-28.1,2.2-53.7,13.4-73.9,30.7l-8-8
			c2.1-4.2,3.2-8.8,3.2-13.8c0-17.2-14-31.1-31.1-31.1c-17.2,0-31.1,14-31.1,31.1s14,31.1,31.1,31.1c4.9,0,9.6-1.2,13.8-3.2l8,8
			c-17.3,20.2-28.5,45.8-30.7,73.9h-12.5c-4-10.6-14.3-18.1-26.3-18.1c-15.5,0-28.1,12.6-28.1,28.1s12.6,28.1,28.1,28.1
			c12,0,22.2-7.5,26.3-18.1h12.5c2.2,28.1,13.4,53.7,30.7,73.9l-15.2,15.2c-4.2-2.1-8.8-3.2-13.8-3.2c-17.2,0-31.1,14-31.1,31.1
			s14,31.1,31.1,31.1s31.1-14,31.1-31.1c0-4.9-1.2-9.6-3.2-13.8l15.2-15.2c20.2,17.3,45.8,28.5,73.9,30.7v12.5
			c-10.6,4-18.1,14.3-18.1,26.3c0,15.5,12.6,28.1,28.1,28.1s28.1-12.6,28.1-28.1c0-12-7.5-22.2-18.1-26.3v-12.5
			c28.1-2.2,53.7-13.4,73.9-30.7l7.3,7.3c-2.1,4.2-3.2,8.8-3.2,13.8c0,17.2,14,31.1,31.1,31.1c17.2,0,31.1-14,31.1-31.1
			s-14-31.1-31.1-31.1c-4.9,0-9.6,1.2-13.8,3.2l-7.3-7.3c17.3-20.2,28.5-45.8,30.7-73.9H397c4,10.6,14.3,18.1,26.3,18.1
			c15.5,0,28.1-12.6,28.1-28.1C451.4,189,438.8,176.4,423.3,176.4L423.3,176.4z M255.8,20c6.9,0,12.6,5.6,12.6,12.6
			s-5.6,12.6-12.6,12.6c-6.9,0-12.6-5.6-12.6-12.6S248.9,20,255.8,20L255.8,20z M136,95.9c-6.1,0-11.1-5-11.1-11.1s5-11.1,11.1-11.1
			c6.1,0,11.1,5,11.1,11.1S142.2,95.9,136,95.9z M88.3,212.6c-4.5,0-8.1-3.6-8.1-8.1s3.6-8.1,8.1-8.1s8.1,3.6,8.1,8.1
			S92.8,212.6,88.3,212.6z M128.8,342.7c-6.1,0-11.1-5-11.1-11.1c0-6.1,5-11.1,11.1-11.1c6.1,0,11.1,5,11.1,11.1
			C139.9,337.7,134.9,342.7,128.8,342.7z M255.8,380.1c-4.5,0-8.1-3.6-8.1-8.1s3.6-8.1,8.1-8.1c4.5,0,8.1,3.6,8.1,8.1
			S260.3,380.1,255.8,380.1L255.8,380.1z M374.9,312.5c6.1,0,11.1,5,11.1,11.1c0,6.1-5,11.1-11.1,11.1c-6.1,0-11.1-5-11.1-11.1
			C363.8,317.5,368.7,312.5,374.9,312.5z M423.3,212.6c-4.5,0-8.1-3.6-8.1-8.1s3.6-8.1,8.1-8.1c4.5,0,8.1,3.6,8.1,8.1
			C431.4,209,427.7,212.6,423.3,212.6z"/>
		<path id="XMLID_1052_" class="st0" d="M170,204.5c0,17.2,14,31.1,31.1,31.1s31.1-14,31.1-31.1s-14-31.1-31.1-31.1
			S170,187.4,170,204.5z M212.2,204.5c0,6.1-5,11.1-11.1,11.1s-11.1-5-11.1-11.1s5-11.1,11.1-11.1S212.2,198.4,212.2,204.5z"/>
		<path id="XMLID_1055_" class="st0" d="M277,131.2c-17.2,0-31.1,14-31.1,31.1c0,17.2,14,31.1,31.1,31.1c17.2,0,31.1-14,31.1-31.1
			S294.2,131.2,277,131.2z M277,173.4c-6.1,0-11.1-5-11.1-11.1s5-11.1,11.1-11.1c6.1,0,11.1,5,11.1,11.1S283.2,173.4,277,173.4z"/>
		<path id="XMLID_1058_" class="st0" d="M268.4,228.1c-17.2,0-31.1,14-31.1,31.1s14,31.1,31.1,31.1s31.1-14,31.1-31.1
			C299.5,242.1,285.6,228.1,268.4,228.1z M268.4,270.3c-6.1,0-11.1-5-11.1-11.1c0-6.1,5-11.1,11.1-11.1c6.1,0,11.1,5,11.1,11.1
			C279.5,265.3,274.5,270.3,268.4,270.3z"/>
		<path id="XMLID_1061_" class="st0" d="M386.7,104.7c17.2,0,31.1-14,31.1-31.1s-14-31.1-31.1-31.1s-31.1,14-31.1,31.1
			S369.6,104.7,386.7,104.7z M386.7,62.5c6.1,0,11.1,5,11.1,11.1c0,6.1-5,11.1-11.1,11.1c-6.1,0-11.1-5-11.1-11.1
			C375.6,67.4,380.6,62.5,386.7,62.5z"/>
		<path id="XMLID_1062_" class="st0" d="M339.8,130.2c2.6,0,5.2-1.1,7.1-2.9c1.9-1.9,2.9-4.4,2.9-7.1c0-2.6-1.1-5.2-2.9-7.1
			c-1.9-1.9-4.4-2.9-7.1-2.9s-5.2,1.1-7.1,2.9c-1.9,1.9-2.9,4.4-2.9,7.1c0,2.6,1.1,5.2,2.9,7.1C334.6,129.1,337.2,130.2,339.8,130.2
			z"/>
		<path id="XMLID_1065_" class="st0" d="M335.3,420h-16.2c-2.7,0-5.2,1.1-7.1,2.9c-1.9,1.9-2.9,4.4-2.9,7.1v72
			c0,2.7,1.2,5.2,3.1,7.1c1.9,1.9,4.4,2.9,7,2.9h0.1c0.4,0,11-0.1,16.8-0.2c22.2-0.4,38.3-19.7,38.3-45.8
			C374.4,438.5,358.7,420,335.3,420L335.3,420z M335.7,491.8c-1.8,0-4.2,0.1-6.5,0.1c0-8.4-0.1-43.1-0.1-51.9h6.2
			c17.7,0,19.1,19.9,19.1,26C354.4,478.7,348.6,491.6,335.7,491.8z"/>
	</g>
</g>
</svg>
