<?xml version="1.0" encoding="utf-8"?>
<!-- Generator: Adobe Illustrator 24.0.2, SVG Export Plug-In . SVG Version: 6.00 Build 0)  -->
<svg version="1.1" id="Layer_1" xmlns="http://www.w3.org/2000/svg" xmlns:xlink="http://www.w3.org/1999/xlink" x="0px" y="0px"
	 viewBox="0 0 512 512" style="enable-background:new 0 0 512 512;" xml:space="preserve">
<style type="text/css">
	.st0{fill:#F8002E;}
	.st1{fill:#A8001F;}
</style>
<g>
	<g>
		<path class="st0" d="M240,144h-24v-32h24v-8h32v8h24v32h-24v24h-32V144z"/>
		<path class="st0" d="M120,104v280H16V124c0-11,8.9-20,20-20c0,0,0,0,0,0H120z"/>
		<path class="st0" d="M176,328h160v24H176V328z"/>
		<path class="st0" d="M496,124v260H392V104h84C487,104,496,112.9,496,124C496,124,496,124,496,124z"/>
		<path class="st0" d="M272,112h24v32h-24v24h-32v-24h-24v-32h24V88h32V112z"/>
		<path class="st0" d="M176,328v24h160v-24H176z"/>
		<path class="st0" d="M296,112v32h-24v24h-32v-24h-24v-32h24V88h32v24H296z"/>
		<path class="st0" d="M312,464H200l8-40h95L312,464z"/>
		<path class="st0" d="M296,112v32h-24v24h-32v-24h-24v-32h24V88h32v24H296z"/>
		<path class="st0" d="M176,328h160v24H176V328z"/>
	</g>
	<g>
		<path class="st1" d="M476,96h-76V24c0-4.4-3.6-8-8-8H120c-4.4,0-8,3.6-8,8v72H36c-15.5,0-28,12.5-28,28v280c0,15.5,12.5,28,28,28
			h162.2l-4.8,24H168c-4.4,0-8,3.6-8,8v16h-40c-4.4,0-8,3.6-8,8s3.6,8,8,8h256c4.4,0,8-3.6,8-8s-3.6-8-8-8h-24v-16c0-4.4-3.6-8-8-8
			h-25.6l-5.4-24h163c15.5,0,28-12.5,28-28V124C504,108.5,491.5,96,476,96z M128,32h256v344H128V32z M24,124c0-6.6,5.4-12,12-12h76
			v264H24V124z M336,472v8H176v-8H336z M209.8,456l4.8-24h82l5.4,24H209.8z M488,404c0,6.6-5.4,12-12,12H36c-6.6,0-12-5.4-12-12v-12
			h464V404z M488,376h-88V112h76c6.6,0,12,5.4,12,12V376z"/>
		<path class="st1" d="M408,480h-8c-4.4,0-8,3.6-8,8s3.6,8,8,8h8c4.4,0,8-3.6,8-8S412.4,480,408,480z"/>
		<path class="st1" d="M232,152v16c0,4.4,3.6,8,8,8h32c4.4,0,8-3.6,8-8v-16h16c4.4,0,8-3.6,8-8v-32c0-4.4-3.6-8-8-8h-16V88
			c0-4.4-3.6-8-8-8h-32c-4.4,0-8,3.6-8,8v16h-16c-4.4,0-8,3.6-8,8v32c0,4.4,3.6,8,8,8H232z M224,120h16c4.4,0,8-3.6,8-8V96h16v16
			c0,4.4,3.6,8,8,8h16v16h-16c-4.4,0-8,3.6-8,8v16h-16v-16c0-4.4-3.6-8-8-8h-16V120z"/>
		<path class="st1" d="M256,208c44.2,0,80-35.8,80-80s-35.8-80-80-80s-80,35.8-80,80C176.1,172.2,211.8,207.9,256,208z M256,64
			c35.3,0,64,28.7,64,64s-28.7,64-64,64s-64-28.7-64-64C192,92.7,220.7,64,256,64z"/>
		<path class="st1" d="M176,360h160c4.4,0,8-3.6,8-8v-24c0-4.4-3.6-8-8-8H176c-4.4,0-8,3.6-8,8v24C168,356.4,171.6,360,176,360z
			 M184,336h144v8H184V336z"/>
		<path class="st1" d="M288,240c4.4,0,8-3.6,8-8s-3.6-8-8-8h-64c-4.4,0-8,3.6-8,8s3.6,8,8,8H288z"/>
		<path class="st1" d="M328,264c0-4.4-3.6-8-8-8H192c-4.4,0-8,3.6-8,8s3.6,8,8,8h128C324.4,272,328,268.4,328,264z"/>
		<path class="st1" d="M232,288c-4.4,0-8,3.6-8,8s3.6,8,8,8h48c4.4,0,8-3.6,8-8s-3.6-8-8-8H232z"/>
	</g>
</g>
</svg>
