<?xml version="1.0" encoding="iso-8859-1"?>
<!-- Generator: Adobe Illustrator 19.0.0, SVG Export Plug-In . SVG Version: 6.00 Build 0)  -->
<svg version="1.1" id="Capa_1" xmlns="http://www.w3.org/2000/svg" xmlns:xlink="http://www.w3.org/1999/xlink" x="0px" y="0px"
	 viewBox="0 0 512 512" style="enable-background:new 0 0 512 512;" xml:space="preserve">
<g>
	<g>
		<path d="M368,96H144c-8.832,0-16,7.168-16,16c0,8.832,7.168,16,16,16h224c8.832,0,16-7.168,16-16C384,103.168,376.832,96,368,96z"
			/>
	</g>
</g>
<g>
	<g>
		<path d="M368,160H144c-8.832,0-16,7.168-16,16c0,8.832,7.168,16,16,16h224c8.832,0,16-7.168,16-16
			C384,167.168,376.832,160,368,160z"/>
	</g>
</g>
<g>
	<g>
		<path d="M272,224H144c-8.832,0-16,7.168-16,16c0,8.832,7.168,16,16,16h128c8.832,0,16-7.168,16-16
			C288,231.168,280.832,224,272,224z"/>
	</g>
</g>
<g>
	<g>
		<path d="M496,288h-48V32c0-17.632-14.336-32-32-32H96C78.368,0,64,14.368,64,32v256H16c-8.832,0-16,7.168-16,16v176
			c0,17.664,14.368,32,32,32h448c17.664,0,32-14.336,32-32V304C512,295.168,504.832,288,496,288z M416,288h-16
			c-6.048,0-11.584,3.424-14.304,8.832L358.112,352H153.92l-27.584-55.168C123.616,291.424,118.08,288,112,288H96V32h320V288z"/>
	</g>
</g>
<g>
</g>
<g>
</g>
<g>
</g>
<g>
</g>
<g>
</g>
<g>
</g>
<g>
</g>
<g>
</g>
<g>
</g>
<g>
</g>
<g>
</g>
<g>
</g>
<g>
</g>
<g>
</g>
<g>
</g>
</svg>
