<?xml version="1.0" encoding="iso-8859-1"?>
<!-- Generator: Adobe Illustrator 19.0.0, SVG Export Plug-In . SVG Version: 6.00 Build 0)  -->
<svg version="1.1" id="Capa_1" xmlns="http://www.w3.org/2000/svg" xmlns:xlink="http://www.w3.org/1999/xlink" x="0px" y="0px"
	 viewBox="0 0 512 512" style="enable-background:new 0 0 512 512;" xml:space="preserve">
<g>
	<g>
		<g>
			<circle cx="256" cy="127" r="20"/>
			<path d="M437.02,74.98C388.667,26.629,324.38,0,256,0S123.333,26.629,74.98,74.98C26.629,123.333,0,187.62,0,256
				s26.629,132.667,74.98,181.02C123.333,485.371,187.62,512,256,512c46.813,0,92.618-12.758,132.461-36.893
				c9.448-5.724,12.467-18.022,6.744-27.469c-5.723-9.448-18.021-12.467-27.468-6.744C334.144,461.244,295.506,472,256,472
				c-119.103,0-216-96.897-216-216S136.897,40,256,40s216,96.897,216,216c0,42.589-12.665,84.044-36.627,119.884
				c-6.139,9.182-3.672,21.603,5.511,27.742c9.183,6.138,21.603,3.673,27.742-5.51C497.001,355.674,512,306.53,512,256
				C512,187.62,485.371,123.333,437.02,74.98z"/>
			<path d="M256,187c-11.046,0-20,8.954-20,20v178c0,11.046,8.954,20,20,20s20-8.954,20-20V207C276,195.954,267.046,187,256,187z"/>
		</g>
	</g>
</g>
<g>
</g>
<g>
</g>
<g>
</g>
<g>
</g>
<g>
</g>
<g>
</g>
<g>
</g>
<g>
</g>
<g>
</g>
<g>
</g>
<g>
</g>
<g>
</g>
<g>
</g>
<g>
</g>
<g>
</g>
</svg>
