<svg id="Capa_1" enable-background="new 0 0 512 512" height="512" viewBox="0 0 512 512" width="512" xmlns="http://www.w3.org/2000/svg"><g><path d="m408.687 353.18-33.008-29.861c-6.352-5.746-14.612-8.928-23.177-8.928h-176.637c-8.565 0-16.825 3.182-23.177 8.928l-33.008 29.861c-7.312 6.614-11.483 16.014-11.483 25.873v87.185c0 19.752 16.012 35.763 35.763 35.763l124.796 10h102.097l12.026-46.881c1.347 0 2.44-1.093 2.44-2.44l34.851-23.073v-60.554c0-9.86-4.172-19.258-11.483-25.873z" fill="#5d91b9"/><path d="m383.471 156.012v47.439l-238.576-6.96v-86.479h136.249z" fill="#be694e"/><path d="m359.311 202.74 24.16.711v-93.439h-24.16z" fill="#ac583e"/><path d="m408.687 353.18-33.008-29.861c-6.352-5.746-14.612-8.928-23.177-8.928h-32.412c8.565 0 16.825 3.182 23.177 8.928l33.008 29.861c7.312 6.614 11.483 16.014 11.483 25.873v120.507c0 1.347-1.092 2.44-2.439 2.44h22.412c1.348 0 2.44-1.092 2.44-2.44l10-59.953v-60.554c-.001-9.859-4.173-19.259-11.484-25.873z" fill="#4980ac"/><path d="m363.126 439.607v72.393h54.604c1.347 0 2.44-1.092 2.44-2.44v-69.953z" fill="#ffcdbe"/><path d="m387.758 439.607v69.954c0 1.347-1.092 2.438-2.439 2.44h32.412c1.179 0 2.163-.836 2.39-1.948.032-.159.05-.323.05-.491v-69.953h-32.413z" fill="#ebae9d"/><g fill="#4980ac"><path d="m172.967 507v-98.956c0-4.268-3.459-7.726-7.726-7.726s-7.726 3.459-7.726 7.726v98.956z"/><path d="m370.853 512v-103.956c0-4.268-3.459-7.726-7.726-7.726s-7.726 3.459-7.726 7.726v103.956z"/></g><path d="m231.771 239.739v76.083c0 17.901 14.511 32.412 32.412 32.412s32.412-14.511 32.412-32.412v-76.083z" fill="#ebae9d"/><path d="m370.576 234.026h-212.785c-12.606 0-22.826-10.22-22.826-22.826s10.22-22.826 22.826-22.826h212.785c12.606 0 22.826 10.22 22.826 22.826s-10.22 22.826-22.826 22.826z" fill="#ffcdbe"/><path d="m345.604 140.891v98.451c0 22.953-18.607 41.561-41.561 41.561h-79.72c-22.953 0-41.561-18.607-41.561-41.561v-86.18c0-4.188 2.538-7.992 6.444-9.502 16.728-6.467 32.579-15.791 45.699-27.491 3.209-2.862 7.802-3.487 11.687-1.642 28.149 13.371 59.61 19.702 90.744 18.383 4.518-.192 8.268 3.459 8.268 7.981z" fill="#ffcdbe"/><path d="m337.336 132.91c-31.134 1.319-62.594-5.012-90.744-18.383-3.885-1.845-8.477-1.221-11.687 1.642-.27.241-.548.474-.82.713 26.806 11.754 56.337 17.268 85.582 16.029 4.517-.191 8.267 3.459 8.267 7.981v98.451c0 22.953-18.607 41.561-41.561 41.561h17.669c22.953 0 41.561-18.608 41.561-41.561v-98.451c.001-4.523-3.749-8.174-8.267-7.982z" fill="#ebae9d"/><g fill="#766d78"><path d="m221.336 198.368c-4.258 0-8.514-.82-12.741-2.461-3.978-1.544-5.951-6.021-4.407-9.999s6.02-5.951 9.999-4.407c4.812 1.868 9.489 1.868 14.301 0 3.977-1.543 8.454.43 9.999 4.407 1.543 3.978-.43 8.455-4.407 9.999-4.229 1.64-8.487 2.461-12.744 2.461z"/><path d="m307.03 198.368c-4.258 0-8.514-.82-12.741-2.461-3.978-1.544-5.951-6.021-4.407-9.999 1.545-3.978 6.022-5.951 9.999-4.407 4.811 1.867 9.489 1.869 14.3 0 3.977-1.543 8.454.43 9.999 4.407 1.543 3.978-.43 8.455-4.407 9.999-4.229 1.64-8.486 2.461-12.743 2.461z"/></g><path d="m290.117 474.295v18.366c0 10.681-8.658 19.339-19.339 19.339h-36.756l-81.222-10v-47.044h117.979c10.68 0 19.338 8.659 19.338 19.339z" fill="#ffcdbe"/><path d="m225.344 436.65c-3.645 0-6.889-2.591-7.586-6.304l-21.465-114.532c-.786-4.194 1.977-8.231 6.171-9.018 4.196-.783 8.231 1.978 9.018 6.171l21.465 114.532c.786 4.194-1.977 8.231-6.171 9.018-.48.09-.96.133-1.432.133z" fill="#62a4fb"/><path d="m97.414 428.923h141.36c3.084 0 5.584 2.5 5.584 5.584v67.158c0 5.708-4.627 10.336-10.336 10.336h-103.99c-21.098 0-38.202-17.103-38.202-38.202v-39.292c0-3.084 2.5-5.584 5.584-5.584z" fill="#80b6fc"/><path d="m234.022 489.061h-103.99c-21.098 0-38.201-17.104-38.201-38.202v22.939c0 21.098 17.103 38.202 38.202 38.202h103.99c5.708 0 10.336-4.627 10.336-10.336v-22.939c-.002 5.709-4.629 10.336-10.337 10.336z" fill="#62a4fb"/><path d="m245.552 0h37.262c55.592 0 100.659 45.066 100.659 100.659v58.451l-238.579-43.187v-15.263c0-55.594 45.066-100.66 100.658-100.66z" fill="#ddebfd"/><g fill="#bed9fd"><path d="m282.814 0h-24.161c55.592 0 100.659 45.066 100.659 100.658v54.077l24.161 4.374v-58.451c0-55.592-45.067-100.658-100.659-100.658z"/><path d="m368.118 47.211-139.851 25.318c-4.199.76-6.987 4.78-6.226 8.979.676 3.733 3.929 6.351 7.594 6.351.457 0 .921-.04 1.385-.125l144.576-26.174c-2.111-5.003-4.62-9.797-7.478-14.349z"/><path d="m170.491 33.6c-4.918 5.501-9.239 11.545-12.864 18.033l183.28-33.184c-6.735-4.768-14.083-8.725-21.9-11.738z"/><path d="m148.653 73.321 234.82 42.503s-.006-15.525-.007-15.705l-229.385-41.518c-2.174 4.721-3.997 9.638-5.428 14.72z"/></g></g></svg>